# xmcd
#
# Track frame offsets:
#	150
#	25108
#	42373
#	62608
#	84851
#	106018
#	125568
#	141274
#	168118
#	184294
#	206911
#	223562
#	252854
#	285669
#
# Disc length: 4316 seconds
#
# Revision: 1
# Processed by: cddbd v1.5.2PL0 Copyright (c) Steve Scherf et al.
# Submitted via: audiograbber 1.83.01
#
DISCID=c410da0e
DTITLE=Rhytmus Del Mundo feat. - Live Cubano Aleman
DYEAR=2008
DGENRE=
TTITLE0=Rhythms Del Mundo feat. Coco Freeman and Vanya Borges - El Ultimo Mojit
TTITLE0=o
TTITLE1=Rhythms Del Mundo feat. Coco Freeman - The dark side of the matinee
TTITLE2=Rhythms Del Mundo feat. Ich and Ich - Wenn ich tot bin
TTITLE3=Rhythms Del Mundo feat. Juli - Dieses Leben 
TTITLE4=Rhythms Del Mundo feat. Vanya Borges - Ai no corrida 
TTITLE5=Rhythms Del Mundo feat. Jan Delay - Klar 
TTITLE6=Rhythms Del Mundo feat. Vanya Borges - Dont know why 
TTITLE7=Rhythms Del Mundo feat. Silbermond - Symphonie 
TTITLE8=Rhythms Del Mundo feat. 2raumwohnung - 36grad 
TTITLE9=Rhythms Del Mundo feat. Coco Freeman - Fragilidad 
TTITLE10=Rhythms Del Mundo feat. Ich and Ich - Du bist vom selben Stern
TTITLE11=Rhythms Del Mundo feat. Culcha Candela - Hamma
TTITLE12=Rhythms Del Mundo feat. Coco Freeman and Vanya Borges - El Ultimo Moji
TTITLE12=to (Bonus Version) 
TTITLE13=Rhythms Del Mundo feat. Coco Freeman, Vanya Borges and Culcha Candela 
TTITLE13=Guantanamera 
EXTD=
EXTT0=
EXTT1=
EXTT2=
EXTT3=
EXTT4=
EXTT5=
EXTT6=
EXTT7=
EXTT8=
EXTT9=
EXTT10=
EXTT11=
EXTT12=
EXTT13=
PLAYORDER=
